<?xml version="1.0" encoding="utf-8"?>
<!-- Generator: Adobe Illustrator 22.0.0, SVG Export Plug-In . SVG Version: 6.00 Build 0)  -->
<svg version="1.1" id="Layer_1" xmlns="http://www.w3.org/2000/svg" xmlns:xlink="http://www.w3.org/1999/xlink" x="0px" y="0px"
	 viewBox="0 0 640 512" style="enable-background:new 0 0 640 512;" xml:space="preserve">
<style type="text/css">
	.st0{fill:#002F5F;}
</style>
<path class="st0" d="M176,8c6.6,0,12.4,3.1,14.9,10.1l29.4,74L296.4,69c6.3-1.9,13.1,0.2,17.2,5.3c0.5,0.6,0.9,1.2,1.3,1.8
	c-17.1,8.2-32.2,20.8-43.5,37.2l-41,59.2c-27.3,8.9-49.8,31-57.8,60.9l-19.9,74l-35.3,32.5c-4.8,4.5-11.9,5.5-17.8,2.7
	c-5.9-2.9-9.5-9-9-15.6l5.6-79.4l-78.7-12.2c-6.5-1-11.7-5.8-13.1-12.2c-1.5-6.4,1.1-13.1,6.5-16.8l65.6-45.1L37,92.2
	c-3.3-5.7-2.7-12.8,1.4-17.9s10.9-7.2,17.1-5.3l76.1,23.1l29.4-74C163.6,11.1,169.4,8,176,8L176,8z M384.2,99.7l135.6,35.4
	c32.7,9.6,56.3,38,59,71.7l6.9,83.9c17.2,13.5,25.6,36.3,19.6,58.7l-35.2,131.4c-4.6,17-23,26.3-39.2,22.6l-15.4-4.1
	c-17.1-4.6-27.2-22.2-22.7-39.2l8.3-31l-247.3-66.2l-8.2,30.9c-5.5,17.1-22.2,27.2-39.2,22.6l-15.5-4.1
	c-17.1-4.6-27.2-22.1-22.6-39.2l35.2-131.4c6-22.4,24.7-37.9,46.3-41l47.9-69.2C316.9,103.6,351.6,90.9,384.2,99.7L384.2,99.7z
	 M367.7,161.5c-6.6-1.8-13.5,0.8-17.3,6.3l-32.3,46.7l201.5,54l-4.6-57.4c-0.5-5.9-5.2-11.5-11.8-13.3L367.7,161.5z M268.3,308.8
	c12.8,3.4,26-4.2,29.4-17c3.5-12.8-4.1-25.9-16.9-29.4c-13.7-3.4-26,4.2-29.4,17C247.9,292.2,255.5,305.4,268.3,308.8z M528,328.7
	c-12.8-3.4-25.9,4.2-29.4,17c-3.4,12.8,4.2,25.9,17,29.4c12.8,3.4,26-4.2,29.4-17C548.4,345.3,540.8,332.1,528,328.7z"/>
</svg>
