<?xml version="1.0" encoding="utf-8"?>
<!-- Generator: Adobe Illustrator 22.0.0, SVG Export Plug-In . SVG Version: 6.00 Build 0)  -->
<svg version="1.1" id="Layer_1" xmlns="http://www.w3.org/2000/svg" xmlns:xlink="http://www.w3.org/1999/xlink" x="0px" y="0px"
	 viewBox="0 0 512 512" style="enable-background:new 0 0 512 512;" xml:space="preserve">
<style type="text/css">
	.st0{fill:#96A9C7;}
</style>
<path class="st0" d="M512,216.3c0-6.1-2.3-12.3-7-16.9l-22.7-22.6c-4.7-4.7-10.8-7-16.1-7s-12.3,2.3-16.1,7l-5.6,5.6L329.6,69.3
	l5.6-5.6c4.7-4.7,7-10.8,7-16.1s-2.3-12.3-7-16.1L312.6,8.8C307.9,2.3,301.8,0,295.7,0s-12.1,2.3-16.8,7L154.2,131.5
	c-4.6,4.7-7,10.8-7,17s2.3,12.3,7,16.9l22.6,22.6c4.7,4.7,10.8,7,16.1,7c6.2,0,12.3-2.3,16.1-7l5.6-5.6l113.1,113.1l-5.6,5.6
	c-4.7,4.7-7,10.8-7,16.1s2.3,12.3,7,16.1l22.6,22.6c4.7,4.7,10.8,7,16.9,7s12.3-2.3,16.9-7l124.5-124.6
	C509.7,228.5,512,222.5,512,216.3z M227.8,238.1l-58.4,59.3c-6.3-6.3-14.5-9.4-22.7-9.4s-16.3,3.1-22.6,9.4L9.4,412.1
	C3.2,418.3,0,426.5,0,434.7s3.1,16.4,9.4,22.6l45.3,45.3c6.2,6.3,14.4,9.4,22.6,9.4s16.4-3.1,22.6-9.4l114.7-114.7
	c6.3-6.3,9.4-14.4,9.4-22.6c0-8.2-3.1-16.4-9.4-22.6l58.4-58.4L227.8,238.1z"/>
</svg>
