<?xml version="1.0" encoding="utf-8"?>
<!-- Generator: Adobe Illustrator 22.0.0, SVG Export Plug-In . SVG Version: 6.00 Build 0)  -->
<svg version="1.1" id="Layer_1" xmlns="http://www.w3.org/2000/svg" xmlns:xlink="http://www.w3.org/1999/xlink" x="0px" y="0px"
	 viewBox="0 0 288 288" style="enable-background:new 0 0 288 288;" xml:space="preserve">
<style type="text/css">
	.st0{clip-path:url(#SVGID_2_);}
	.st1{fill:url(#SVGID_3_);}
	.st2{fill:url(#SVGID_4_);}
	.st3{fill:url(#SVGID_5_);}
	.st4{fill:url(#SVGID_6_);}
	.st5{fill:url(#SVGID_7_);}
	.st6{fill:url(#SVGID_8_);}
	.st7{opacity:0.4;clip-path:url(#SVGID_10_);}
	.st8{fill:url(#SVGID_11_);}
	.st9{fill:url(#SVGID_12_);}
	.st10{fill:url(#SVGID_13_);}
</style>
<g>
	<defs>
		<rect id="SVGID_1_" y="0" width="288" height="288"/>
	</defs>
	<clipPath id="SVGID_2_">
		<use xlink:href="#SVGID_1_"  style="overflow:visible;"/>
	</clipPath>
	<g class="st0">
		<g>
			
				<linearGradient id="SVGID_3_" gradientUnits="userSpaceOnUse" x1="62.9" y1="255.7894" x2="82.5" y2="255.7894" gradientTransform="matrix(1 0 0 -1 0 287.0394)">
				<stop  offset="0" style="stop-color:#FFF1A5"/>
				<stop  offset="3.195160e-02" style="stop-color:#FDDB7E"/>
				<stop  offset="0.1008" style="stop-color:#E9BC65"/>
				<stop  offset="0.1913" style="stop-color:#D2994A"/>
				<stop  offset="0.2401" style="stop-color:#C98C3F"/>
				<stop  offset="0.3022" style="stop-color:#DCA956"/>
				<stop  offset="0.3931" style="stop-color:#FDDB7E"/>
				<stop  offset="0.467" style="stop-color:#FEE998"/>
				<stop  offset="0.5196" style="stop-color:#FFF1A5"/>
				<stop  offset="0.6883" style="stop-color:#FDDB7E"/>
				<stop  offset="0.7057" style="stop-color:#F3CB71"/>
				<stop  offset="0.7496" style="stop-color:#DCA956"/>
				<stop  offset="0.7857" style="stop-color:#CE9445"/>
				<stop  offset="0.8094" style="stop-color:#C98C3F"/>
				<stop  offset="0.8702" style="stop-color:#DCA956"/>
				<stop  offset="0.9594" style="stop-color:#FDDB7E"/>
				<stop  offset="0.9811" style="stop-color:#FEE793"/>
				<stop  offset="1" style="stop-color:#FFEFA0"/>
			</linearGradient>
			<path class="st1" d="M62.9,25.3c2.7,1.5,5.4,3.3,7.9,5c3.7,2.5,7.6,5.1,11.7,6.9"/>
			
				<linearGradient id="SVGID_4_" gradientUnits="userSpaceOnUse" x1="62.1" y1="260.3394" x2="62.1" y2="260.3394" gradientTransform="matrix(1 0 0 -1 0 287.0394)">
				<stop  offset="0" style="stop-color:#FFF1A5"/>
				<stop  offset="3.195160e-02" style="stop-color:#FDDB7E"/>
				<stop  offset="0.1008" style="stop-color:#E9BC65"/>
				<stop  offset="0.1913" style="stop-color:#D2994A"/>
				<stop  offset="0.2401" style="stop-color:#C98C3F"/>
				<stop  offset="0.3022" style="stop-color:#DCA956"/>
				<stop  offset="0.3931" style="stop-color:#FDDB7E"/>
				<stop  offset="0.467" style="stop-color:#FEE998"/>
				<stop  offset="0.5196" style="stop-color:#FFF1A5"/>
				<stop  offset="0.6883" style="stop-color:#FDDB7E"/>
				<stop  offset="0.7057" style="stop-color:#F3CB71"/>
				<stop  offset="0.7496" style="stop-color:#DCA956"/>
				<stop  offset="0.7857" style="stop-color:#CE9445"/>
				<stop  offset="0.8094" style="stop-color:#C98C3F"/>
				<stop  offset="0.8702" style="stop-color:#DCA956"/>
				<stop  offset="0.9594" style="stop-color:#FDDB7E"/>
				<stop  offset="0.9811" style="stop-color:#FEE793"/>
				<stop  offset="1" style="stop-color:#FFEFA0"/>
			</linearGradient>
			<path class="st2" d="M62.1,26.7"/>
			
				<linearGradient id="SVGID_5_" gradientUnits="userSpaceOnUse" x1="81.9" y1="248.4394" x2="81.9" y2="248.4394" gradientTransform="matrix(1 0 0 -1 0 287.0394)">
				<stop  offset="0" style="stop-color:#FFF1A5"/>
				<stop  offset="3.195160e-02" style="stop-color:#FDDB7E"/>
				<stop  offset="0.1008" style="stop-color:#E9BC65"/>
				<stop  offset="0.1913" style="stop-color:#D2994A"/>
				<stop  offset="0.2401" style="stop-color:#C98C3F"/>
				<stop  offset="0.3022" style="stop-color:#DCA956"/>
				<stop  offset="0.3931" style="stop-color:#FDDB7E"/>
				<stop  offset="0.467" style="stop-color:#FEE998"/>
				<stop  offset="0.5196" style="stop-color:#FFF1A5"/>
				<stop  offset="0.6883" style="stop-color:#FDDB7E"/>
				<stop  offset="0.7057" style="stop-color:#F3CB71"/>
				<stop  offset="0.7496" style="stop-color:#DCA956"/>
				<stop  offset="0.7857" style="stop-color:#CE9445"/>
				<stop  offset="0.8094" style="stop-color:#C98C3F"/>
				<stop  offset="0.8702" style="stop-color:#DCA956"/>
				<stop  offset="0.9594" style="stop-color:#FDDB7E"/>
				<stop  offset="0.9811" style="stop-color:#FEE793"/>
				<stop  offset="1" style="stop-color:#FFEFA0"/>
			</linearGradient>
			<path class="st3" d="M81.9,38.6"/>
			
				<linearGradient id="SVGID_6_" gradientUnits="userSpaceOnUse" x1="123.1" y1="254.3394" x2="123.1" y2="254.3394" gradientTransform="matrix(1 0 0 -1 0 287.0394)">
				<stop  offset="0" style="stop-color:#FFF1A5"/>
				<stop  offset="3.195160e-02" style="stop-color:#FDDB7E"/>
				<stop  offset="0.1008" style="stop-color:#E9BC65"/>
				<stop  offset="0.1913" style="stop-color:#D2994A"/>
				<stop  offset="0.2401" style="stop-color:#C98C3F"/>
				<stop  offset="0.3022" style="stop-color:#DCA956"/>
				<stop  offset="0.3931" style="stop-color:#FDDB7E"/>
				<stop  offset="0.467" style="stop-color:#FEE998"/>
				<stop  offset="0.5196" style="stop-color:#FFF1A5"/>
				<stop  offset="0.6883" style="stop-color:#FDDB7E"/>
				<stop  offset="0.7057" style="stop-color:#F3CB71"/>
				<stop  offset="0.7496" style="stop-color:#DCA956"/>
				<stop  offset="0.7857" style="stop-color:#CE9445"/>
				<stop  offset="0.8094" style="stop-color:#C98C3F"/>
				<stop  offset="0.8702" style="stop-color:#DCA956"/>
				<stop  offset="0.9594" style="stop-color:#FDDB7E"/>
				<stop  offset="0.9811" style="stop-color:#FEE793"/>
				<stop  offset="1" style="stop-color:#FFEFA0"/>
			</linearGradient>
			<path class="st4" d="M123.1,32.7"/>
			
				<linearGradient id="SVGID_7_" gradientUnits="userSpaceOnUse" x1="122.1" y1="255.4394" x2="122.1" y2="255.4394" gradientTransform="matrix(1 0 0 -1 0 287.0394)">
				<stop  offset="0" style="stop-color:#FFF1A5"/>
				<stop  offset="3.195160e-02" style="stop-color:#FDDB7E"/>
				<stop  offset="0.1008" style="stop-color:#E9BC65"/>
				<stop  offset="0.1913" style="stop-color:#D2994A"/>
				<stop  offset="0.2401" style="stop-color:#C98C3F"/>
				<stop  offset="0.3022" style="stop-color:#DCA956"/>
				<stop  offset="0.3931" style="stop-color:#FDDB7E"/>
				<stop  offset="0.467" style="stop-color:#FEE998"/>
				<stop  offset="0.5196" style="stop-color:#FFF1A5"/>
				<stop  offset="0.6883" style="stop-color:#FDDB7E"/>
				<stop  offset="0.7057" style="stop-color:#F3CB71"/>
				<stop  offset="0.7496" style="stop-color:#DCA956"/>
				<stop  offset="0.7857" style="stop-color:#CE9445"/>
				<stop  offset="0.8094" style="stop-color:#C98C3F"/>
				<stop  offset="0.8702" style="stop-color:#DCA956"/>
				<stop  offset="0.9594" style="stop-color:#FDDB7E"/>
				<stop  offset="0.9811" style="stop-color:#FEE793"/>
				<stop  offset="1" style="stop-color:#FFEFA0"/>
			</linearGradient>
			<path class="st5" d="M122.1,31.6"/>
		</g>
		<g>
			
				<linearGradient id="SVGID_8_" gradientUnits="userSpaceOnUse" x1="37.6757" y1="36.2371" x2="308.8" y2="36.2371" gradientTransform="matrix(1 0 0 -1 0 287.0394)">
				<stop  offset="0" style="stop-color:#FFF1A5"/>
				<stop  offset="3.195160e-02" style="stop-color:#FDDB7E"/>
				<stop  offset="0.1008" style="stop-color:#E9BC65"/>
				<stop  offset="0.1913" style="stop-color:#D2994A"/>
				<stop  offset="0.2401" style="stop-color:#C98C3F"/>
				<stop  offset="0.3022" style="stop-color:#DCA956"/>
				<stop  offset="0.3931" style="stop-color:#FDDB7E"/>
				<stop  offset="0.467" style="stop-color:#FEE998"/>
				<stop  offset="0.5196" style="stop-color:#FFF1A5"/>
				<stop  offset="0.6883" style="stop-color:#FDDB7E"/>
				<stop  offset="0.7057" style="stop-color:#F3CB71"/>
				<stop  offset="0.7496" style="stop-color:#DCA956"/>
				<stop  offset="0.7857" style="stop-color:#CE9445"/>
				<stop  offset="0.8094" style="stop-color:#C98C3F"/>
				<stop  offset="0.8702" style="stop-color:#DCA956"/>
				<stop  offset="0.9594" style="stop-color:#FDDB7E"/>
				<stop  offset="0.9811" style="stop-color:#FEE793"/>
				<stop  offset="1" style="stop-color:#FFEFA0"/>
			</linearGradient>
			<path class="st6" d="M43.2,311.6c-3-2.2-4.9-5.6-5.4-9.7c-0.6-5,1-10.5,4.2-14.3c4.9-5.8,13-9.3,23.6-10.1
				c3.6-0.3,7.3-0.3,10.9-0.4c4.9,0,9.9-0.1,14.8-0.8c6.3-1,12.6-3.2,18.6-5.3c7.3-2.6,14.8-5.2,22.6-5.8c9-0.6,18.1,1.4,27,3.5
				c13,2.9,25.2,5.7,36.6,0.6c12.6-5.7,18.5-18.4,24.8-31.8c2.8-5.9,5.6-12.1,9.1-17.5c16.2-25.2,50.8-36.6,78.8-26.1l-0.5,1.4
				c-27.4-10.3-61.2,0.9-77,25.5c-3.4,5.3-6.3,11.4-9,17.3c-6.1,13.1-12.4,26.6-25.5,32.6c-11.9,5.4-24.9,2.4-37.6-0.5
				c-8.7-2-17.8-4-26.5-3.4c-7.6,0.5-15,3.2-22.2,5.7c-6.1,2.2-12.4,4.4-18.9,5.4c-5,0.8-10.1,0.8-15,0.8c-3.5,0-7.2,0.1-10.7,0.4
				c-7.1,0.6-16.8,2.7-22.6,9.6c-2.9,3.5-4.4,8.5-3.9,13.2c0.4,3.7,2.1,6.8,4.8,8.7L43.2,311.6z"/>
		</g>
	</g>
</g>
<g>
	<defs>
		<rect id="SVGID_9_" y="0" width="288" height="288"/>
	</defs>
	<clipPath id="SVGID_10_">
		<use xlink:href="#SVGID_9_"  style="overflow:visible;"/>
	</clipPath>
	<g class="st7">
		<g>
			
				<linearGradient id="SVGID_11_" gradientUnits="userSpaceOnUse" x1="-648.5843" y1="3380.7561" x2="-374.2509" y2="3380.7561" gradientTransform="matrix(-1 0 0 1 -327.1843 -3120.5562)">
				<stop  offset="0" style="stop-color:#FFF1A5"/>
				<stop  offset="3.195160e-02" style="stop-color:#FDDB7E"/>
				<stop  offset="0.1008" style="stop-color:#E9BC65"/>
				<stop  offset="0.1913" style="stop-color:#D2994A"/>
				<stop  offset="0.2401" style="stop-color:#C98C3F"/>
				<stop  offset="0.3022" style="stop-color:#DCA956"/>
				<stop  offset="0.3931" style="stop-color:#FDDB7E"/>
				<stop  offset="0.467" style="stop-color:#FEE998"/>
				<stop  offset="0.5196" style="stop-color:#FFF1A5"/>
				<stop  offset="0.6883" style="stop-color:#FDDB7E"/>
				<stop  offset="0.7057" style="stop-color:#F3CB71"/>
				<stop  offset="0.7496" style="stop-color:#DCA956"/>
				<stop  offset="0.7857" style="stop-color:#CE9445"/>
				<stop  offset="0.8094" style="stop-color:#C98C3F"/>
				<stop  offset="0.8702" style="stop-color:#DCA956"/>
				<stop  offset="0.9594" style="stop-color:#FDDB7E"/>
				<stop  offset="0.9811" style="stop-color:#FEE793"/>
				<stop  offset="1" style="stop-color:#FFEFA0"/>
			</linearGradient>
			<path class="st8" d="M58.2,308.2c-8-6.9-12.2-17.7-10.9-28.1c1.2-10.5,7.8-20,17.2-24.8c14.6-7.6,31.3-2.8,47.5,1.8
				c15.4,4.4,31.3,8.9,45.3,2.8c5.7-2.5,10.7-6.7,15.6-10.8c5.8-4.9,11.7-9.9,19-12.1c12.7-3.9,25.3,1.4,37.6,6.5
				c5.4,2.3,11,4.6,16.6,6.1c29.2,8,63-9.2,73.9-37.4l1.4,0.5c-11.1,28.9-45.8,46.5-75.7,38.3c-5.6-1.5-11.3-3.9-16.8-6.2
				c-12.6-5.2-24.4-10.2-36.6-6.4c-7,2.2-12.9,7.1-18.5,11.8c-4.9,4.1-10,8.4-15.9,11c-14.5,6.4-30.7,1.7-46.3-2.7
				c-16.6-4.7-32.3-9.2-46.4-1.9c-8.9,4.6-15.2,13.7-16.4,23.7s2.8,20.3,10.4,26.8L58.2,308.2z"/>
		</g>
		<g>
			
				<linearGradient id="SVGID_12_" gradientUnits="userSpaceOnUse" x1="-654.1005" y1="3356.5562" x2="-406.3843" y2="3356.5562" gradientTransform="matrix(-1 0 0 1 -327.1843 -3120.5562)">
				<stop  offset="0" style="stop-color:#FFF1A5"/>
				<stop  offset="3.195160e-02" style="stop-color:#FDDB7E"/>
				<stop  offset="0.1008" style="stop-color:#E9BC65"/>
				<stop  offset="0.1913" style="stop-color:#D2994A"/>
				<stop  offset="0.2401" style="stop-color:#C98C3F"/>
				<stop  offset="0.3022" style="stop-color:#DCA956"/>
				<stop  offset="0.3931" style="stop-color:#FDDB7E"/>
				<stop  offset="0.467" style="stop-color:#FEE998"/>
				<stop  offset="0.5196" style="stop-color:#FFF1A5"/>
				<stop  offset="0.6883" style="stop-color:#FDDB7E"/>
				<stop  offset="0.7057" style="stop-color:#F3CB71"/>
				<stop  offset="0.7496" style="stop-color:#DCA956"/>
				<stop  offset="0.7857" style="stop-color:#CE9445"/>
				<stop  offset="0.8094" style="stop-color:#C98C3F"/>
				<stop  offset="0.8702" style="stop-color:#DCA956"/>
				<stop  offset="0.9594" style="stop-color:#FDDB7E"/>
				<stop  offset="0.9811" style="stop-color:#FEE793"/>
				<stop  offset="1" style="stop-color:#FFEFA0"/>
			</linearGradient>
			<path class="st9" d="M109.2,311.7c-10.9,0-21.9-3.5-30-10.7l1-1.1c16.6,14.6,45,13.6,60.6-2c5.4-5.4,9.4-12.2,13.2-18.7
				c4.5-7.7,9.2-15.6,16.2-21.5c11.2-9.4,27.8-11.7,41.2-5.9c4.3,1.9,8.2,4.5,12,7c2.5,1.7,5.1,3.4,7.8,4.9
				c4.6,2.6,13.5,6.4,21.4,3.2c6-2.5,10.6-8.6,13.5-18.2c0.6-2.1,1.2-4.2,1.7-6.3c1.5-5.6,3-11.5,6.1-16.5
				c5.7-9.1,15.9-14.4,24.8-19.1c10.1-5.3,18.9-10.3,23.9-18.9c3-5.1,3.7-11.7,1.9-17.3c-0.9-2.9-3-6.8-7.4-8.9l0.6-1.4
				c3.9,1.8,6.8,5.2,8.2,9.8c1.9,6,1.1,13-2.1,18.5c-5.2,8.9-14.5,14.3-24.5,19.5c-8.8,4.6-18.8,9.8-24.2,18.6
				c-3,4.9-4.5,10.6-6,16.1c-0.5,2.1-1.1,4.3-1.8,6.4c-3.1,10-7.9,16.5-14.4,19.1c-6.3,2.6-14.3,1.4-22.7-3.2
				c-2.7-1.5-5.4-3.3-7.9-5c-3.7-2.5-7.6-5.1-11.7-6.9c-12.9-5.6-28.8-3.4-39.6,5.6c-6.8,5.6-11.4,13.5-15.8,21.1
				c-3.9,6.6-8,13.5-13.5,19C133.4,307.4,121.3,311.7,109.2,311.7z"/>
		</g>
		<g>
			
				<linearGradient id="SVGID_13_" gradientUnits="userSpaceOnUse" x1="-398.0843" y1="3173.0562" x2="-398.0843" y2="3173.0562" gradientTransform="matrix(-1 0 0 1 -327.1843 -3120.5562)">
				<stop  offset="0" style="stop-color:#FFF1A5"/>
				<stop  offset="3.195160e-02" style="stop-color:#FDDB7E"/>
				<stop  offset="0.1008" style="stop-color:#E9BC65"/>
				<stop  offset="0.1913" style="stop-color:#D2994A"/>
				<stop  offset="0.2401" style="stop-color:#C98C3F"/>
				<stop  offset="0.3022" style="stop-color:#DCA956"/>
				<stop  offset="0.3931" style="stop-color:#FDDB7E"/>
				<stop  offset="0.467" style="stop-color:#FEE998"/>
				<stop  offset="0.5196" style="stop-color:#FFF1A5"/>
				<stop  offset="0.6883" style="stop-color:#FDDB7E"/>
				<stop  offset="0.7057" style="stop-color:#F3CB71"/>
				<stop  offset="0.7496" style="stop-color:#DCA956"/>
				<stop  offset="0.7857" style="stop-color:#CE9445"/>
				<stop  offset="0.8094" style="stop-color:#C98C3F"/>
				<stop  offset="0.8702" style="stop-color:#DCA956"/>
				<stop  offset="0.9594" style="stop-color:#FDDB7E"/>
				<stop  offset="0.9811" style="stop-color:#FEE793"/>
				<stop  offset="1" style="stop-color:#FFEFA0"/>
			</linearGradient>
			<path class="st10" d="M70.9,52.5"/>
		</g>
	</g>
</g>
</svg>
