<?xml version="1.0" encoding="utf-8"?>
<!-- Generator: Adobe Illustrator 22.0.0, SVG Export Plug-In . SVG Version: 6.00 Build 0)  -->
<svg version="1.1" id="Layer_1" xmlns="http://www.w3.org/2000/svg" xmlns:xlink="http://www.w3.org/1999/xlink" x="0px" y="0px"
	 viewBox="0 0 288 288" style="enable-background:new 0 0 288 288;" xml:space="preserve">
<style type="text/css">
	.st0{clip-path:url(#SVGID_2_);}
	.st1{fill:url(#SVGID_3_);}
	.st2{fill:url(#SVGID_4_);}
	.st3{fill:url(#SVGID_5_);}
	.st4{fill:url(#SVGID_6_);}
	.st5{opacity:0.4;clip-path:url(#SVGID_2_);}
	.st6{fill:url(#SVGID_7_);}
	.st7{fill:url(#SVGID_8_);}
	.st8{fill:url(#SVGID_9_);}
	.st9{fill:url(#SVGID_10_);}
</style>
<g>
	<defs>
		<rect id="SVGID_1_" y="-202.4" width="490.4" height="490.4"/>
	</defs>
	<use xlink:href="#SVGID_1_"  style="overflow:visible;fill:#5D5E43;"/>
	<clipPath id="SVGID_2_">
		<use xlink:href="#SVGID_1_"  style="overflow:visible;"/>
	</clipPath>
	<g class="st0">
		<g>
			<linearGradient id="SVGID_3_" gradientUnits="userSpaceOnUse" x1="-47.7715" y1="-150.6667" x2="419.1461" y2="-150.6667">
				<stop  offset="0" style="stop-color:#FFF1A5"/>
				<stop  offset="3.195160e-02" style="stop-color:#FDDB7E"/>
				<stop  offset="0.1008" style="stop-color:#E9BC65"/>
				<stop  offset="0.1913" style="stop-color:#D2994A"/>
				<stop  offset="0.2401" style="stop-color:#C98C3F"/>
				<stop  offset="0.3022" style="stop-color:#DCA956"/>
				<stop  offset="0.3931" style="stop-color:#FDDB7E"/>
				<stop  offset="0.467" style="stop-color:#FEE998"/>
				<stop  offset="0.5196" style="stop-color:#FFF1A5"/>
				<stop  offset="0.6883" style="stop-color:#FDDB7E"/>
				<stop  offset="0.7057" style="stop-color:#F3CB71"/>
				<stop  offset="0.7496" style="stop-color:#DCA956"/>
				<stop  offset="0.7857" style="stop-color:#CE9445"/>
				<stop  offset="0.8094" style="stop-color:#C98C3F"/>
				<stop  offset="0.8702" style="stop-color:#DCA956"/>
				<stop  offset="0.9594" style="stop-color:#FDDB7E"/>
				<stop  offset="0.9811" style="stop-color:#FEE793"/>
				<stop  offset="1" style="stop-color:#FFEFA0"/>
			</linearGradient>
			<path class="st1" d="M-45.4-68.8l-2.4-0.9C-28.9-119,30.1-148.9,81-135c9.6,2.6,19.2,6.6,28.6,10.5c21.4,8.9,41.6,17.3,62.3,10.9
				c12-3.7,21.9-12.1,31.5-20.2c8.4-7.1,17-14.4,27.1-18.8c24.7-10.8,52.3-3,78.9,4.6c28.3,8.1,55,15.7,78.9,3.3
				c15.2-7.9,25.9-23.3,27.9-40.3c2-17-4.8-34.5-17.7-45.7l1.7-1.9c13.6,11.7,20.7,30.1,18.6,47.9c-2.1,17.8-13.3,34-29.3,42.2
				c-24.9,12.9-53.3,4.7-80.8-3.1c-26.2-7.5-53.3-15.2-77.2-4.7c-9.8,4.3-18.3,11.5-26.5,18.4c-9.8,8.3-19.9,16.8-32.4,20.7
				c-21.6,6.6-43.1-2.4-64-11c-9.2-3.8-18.8-7.8-28.3-10.4C30.7-146.1-26.9-116.9-45.4-68.8z"/>
		</g>
		<g>
			<linearGradient id="SVGID_4_" gradientUnits="userSpaceOnUse" x1="-57.5333" y1="-109.7115" x2="364.5004" y2="-109.7115">
				<stop  offset="0" style="stop-color:#FFF1A5"/>
				<stop  offset="3.195160e-02" style="stop-color:#FDDB7E"/>
				<stop  offset="0.1008" style="stop-color:#E9BC65"/>
				<stop  offset="0.1913" style="stop-color:#D2994A"/>
				<stop  offset="0.2401" style="stop-color:#C98C3F"/>
				<stop  offset="0.3022" style="stop-color:#DCA956"/>
				<stop  offset="0.3931" style="stop-color:#FDDB7E"/>
				<stop  offset="0.467" style="stop-color:#FEE998"/>
				<stop  offset="0.5196" style="stop-color:#FFF1A5"/>
				<stop  offset="0.6883" style="stop-color:#FDDB7E"/>
				<stop  offset="0.7057" style="stop-color:#F3CB71"/>
				<stop  offset="0.7496" style="stop-color:#DCA956"/>
				<stop  offset="0.7857" style="stop-color:#CE9445"/>
				<stop  offset="0.8094" style="stop-color:#C98C3F"/>
				<stop  offset="0.8702" style="stop-color:#DCA956"/>
				<stop  offset="0.9594" style="stop-color:#FDDB7E"/>
				<stop  offset="0.9811" style="stop-color:#FEE793"/>
				<stop  offset="1" style="stop-color:#FFEFA0"/>
			</linearGradient>
			<path class="st2" d="M-41.8,19.1c-6.7-3.1-11.5-8.8-14-16.6C-59-7.7-57.7-19.8-52.3-29c8.8-15.2,24.8-24.3,41.7-33.1
				c15-7.8,32-16.6,41.3-31.6c5.2-8.3,7.7-18,10.2-27.5c0.9-3.6,1.9-7.3,3-10.9c5.2-17.1,13.5-28,24.5-32.5
				c14.4-5.9,30.4,0.9,38.6,5.5c4.7,2.6,9.1,5.6,13.5,8.5c6.3,4.2,12.9,8.6,20,11.7c21.9,9.6,49.1,5.8,67.5-9.6
				c11.5-9.6,19.4-22.9,27-35.9c6.7-11.3,13.5-23,23-32.4c27.5-27.5,77.4-29.1,106.7-3.5l-1.7,1.9c-28.3-24.8-76.6-23.2-103.2,3.4
				c-9.2,9.2-16,20.7-22.6,31.9c-7.7,13.1-15.7,26.6-27.5,36.5c-19.1,15.9-47.3,19.9-70.1,10c-7.3-3.2-13.9-7.6-20.3-11.9
				c-4.3-2.9-8.8-5.9-13.3-8.4c-7.8-4.4-23-10.9-36.4-5.4c-10.3,4.2-18,14.6-23,30.9c-1.1,3.5-2,7.2-3,10.8
				c-2.5,9.6-5.1,19.6-10.5,28.2c-9.7,15.6-27,24.6-42.3,32.5c-17.3,9-32.2,17.6-40.7,32.2c-5,8.7-6.3,19.9-3.3,29.4
				c1.6,5,5,11.6,12.6,15.1L-41.8,19.1z"/>
		</g>
		<g>
			<linearGradient id="SVGID_5_" gradientUnits="userSpaceOnUse" x1="49.6861" y1="235.5405" x2="556.9" y2="235.5405">
				<stop  offset="0" style="stop-color:#FFF1A5"/>
				<stop  offset="3.195160e-02" style="stop-color:#FDDB7E"/>
				<stop  offset="0.1008" style="stop-color:#E9BC65"/>
				<stop  offset="0.1913" style="stop-color:#D2994A"/>
				<stop  offset="0.2401" style="stop-color:#C98C3F"/>
				<stop  offset="0.3022" style="stop-color:#DCA956"/>
				<stop  offset="0.3931" style="stop-color:#FDDB7E"/>
				<stop  offset="0.467" style="stop-color:#FEE998"/>
				<stop  offset="0.5196" style="stop-color:#FFF1A5"/>
				<stop  offset="0.6883" style="stop-color:#FDDB7E"/>
				<stop  offset="0.7057" style="stop-color:#F3CB71"/>
				<stop  offset="0.7496" style="stop-color:#DCA956"/>
				<stop  offset="0.7857" style="stop-color:#CE9445"/>
				<stop  offset="0.8094" style="stop-color:#C98C3F"/>
				<stop  offset="0.8702" style="stop-color:#DCA956"/>
				<stop  offset="0.9594" style="stop-color:#FDDB7E"/>
				<stop  offset="0.9811" style="stop-color:#FEE793"/>
				<stop  offset="1" style="stop-color:#FFEFA0"/>
			</linearGradient>
			<path class="st3" d="M52.1,318.8l-2.4-0.9c9.2-24.6,18.7-50,34.6-71.8c17.7-24.2,41.6-39.8,65.7-42.7
				c22.1-2.7,43.8,4.6,64.8,11.6c2.8,1,5.7,1.9,8.5,2.8c21.5,7,49,13.7,72,3.3c10.7-4.8,19.7-13,28.4-20.9
				c8.9-8.1,18-16.4,29.1-21.4c16.2-7.3,36.2-7.4,59.6-0.5c9.8,2.9,19.4,6.8,28.7,10.5c9,3.6,18.3,7.3,27.6,10.1
				c22.8,6.9,42.2,7,57.9,0.2c17-7.3,31.6-26.6,26.7-46.3l2.5-0.6c5.2,21-10.3,41.6-28.2,49.3c-16.2,7-36.3,6.9-59.6-0.1
				c-9.5-2.9-18.8-6.6-27.8-10.2c-9.2-3.7-18.8-7.5-28.5-10.4c-22.8-6.8-42.2-6.6-57.8,0.4c-10.7,4.8-19.7,13-28.4,21
				c-8.8,8.1-18,16.4-29.1,21.4c-23.8,10.7-52,3.9-73.9-3.2c-2.8-0.9-5.7-1.9-8.5-2.8c-20.7-6.9-42.2-14.1-63.7-11.5
				c-23.4,2.9-46.7,18.1-64,41.7C70.7,269.1,61.2,294.4,52.1,318.8z"/>
		</g>
		<g>
			<linearGradient id="SVGID_6_" gradientUnits="userSpaceOnUse" x1="64.1753" y1="224.5651" x2="525.8435" y2="224.5651">
				<stop  offset="0" style="stop-color:#FFF1A5"/>
				<stop  offset="3.195160e-02" style="stop-color:#FDDB7E"/>
				<stop  offset="0.1008" style="stop-color:#E9BC65"/>
				<stop  offset="0.1913" style="stop-color:#D2994A"/>
				<stop  offset="0.2401" style="stop-color:#C98C3F"/>
				<stop  offset="0.3022" style="stop-color:#DCA956"/>
				<stop  offset="0.3931" style="stop-color:#FDDB7E"/>
				<stop  offset="0.467" style="stop-color:#FEE998"/>
				<stop  offset="0.5196" style="stop-color:#FFF1A5"/>
				<stop  offset="0.6883" style="stop-color:#FDDB7E"/>
				<stop  offset="0.7057" style="stop-color:#F3CB71"/>
				<stop  offset="0.7496" style="stop-color:#DCA956"/>
				<stop  offset="0.7857" style="stop-color:#CE9445"/>
				<stop  offset="0.8094" style="stop-color:#C98C3F"/>
				<stop  offset="0.8702" style="stop-color:#DCA956"/>
				<stop  offset="0.9594" style="stop-color:#FDDB7E"/>
				<stop  offset="0.9811" style="stop-color:#FEE793"/>
				<stop  offset="1" style="stop-color:#FFEFA0"/>
			</linearGradient>
			<path class="st4" d="M73.6,328.2c-5.1-3.7-8.3-9.6-9.2-16.5c-1-8.6,1.7-17.9,7.2-24.4c8.3-9.8,22.1-15.8,40.2-17.3
				c6.2-0.5,12.4-0.6,18.5-0.6c8.3-0.1,16.9-0.1,25.2-1.4c10.8-1.7,21.4-5.4,31.7-9c12.4-4.4,25.2-8.9,38.5-9.8
				c15.2-1.1,30.8,2.5,45.9,5.9c22.1,5,43,9.8,62.4,1c21.5-9.7,31.5-31.3,42.2-54.2c4.7-10.1,9.6-20.6,15.5-29.8
				c27.5-42.9,86.5-62.4,134.2-44.5l-0.9,2.4c-46.6-17.5-104.2,1.6-131.1,43.5c-5.8,9.1-10.7,19.5-15.4,29.5
				c-10.4,22.3-21.2,45.3-43.5,55.4c-20.2,9.1-42.5,4.1-64-0.8c-14.9-3.4-30.3-6.9-45.2-5.8c-13,0.9-25.6,5.4-37.8,9.7
				c-10.4,3.7-21.1,7.5-32.2,9.1c-8.5,1.3-17.2,1.4-25.6,1.4c-6,0-12.2,0.1-18.3,0.6c-12.1,1-28.5,4.7-38.4,16.4
				c-5,5.9-7.5,14.5-6.6,22.4c0.8,6.3,3.7,11.5,8.1,14.8L73.6,328.2z"/>
		</g>
	</g>
	<g class="st5">
		<g>
			
				<linearGradient id="SVGID_7_" gradientUnits="userSpaceOnUse" x1="-1048.3047" y1="-3276.0193" x2="-581.3872" y2="-3276.0193" gradientTransform="matrix(-1 0 0 -1 -501.1843 -3035.5168)">
				<stop  offset="0" style="stop-color:#FFF1A5"/>
				<stop  offset="3.195160e-02" style="stop-color:#FDDB7E"/>
				<stop  offset="0.1008" style="stop-color:#E9BC65"/>
				<stop  offset="0.1913" style="stop-color:#D2994A"/>
				<stop  offset="0.2401" style="stop-color:#C98C3F"/>
				<stop  offset="0.3022" style="stop-color:#DCA956"/>
				<stop  offset="0.3931" style="stop-color:#FDDB7E"/>
				<stop  offset="0.467" style="stop-color:#FEE998"/>
				<stop  offset="0.5196" style="stop-color:#FFF1A5"/>
				<stop  offset="0.6883" style="stop-color:#FDDB7E"/>
				<stop  offset="0.7057" style="stop-color:#F3CB71"/>
				<stop  offset="0.7496" style="stop-color:#DCA956"/>
				<stop  offset="0.7857" style="stop-color:#CE9445"/>
				<stop  offset="0.8094" style="stop-color:#C98C3F"/>
				<stop  offset="0.8702" style="stop-color:#DCA956"/>
				<stop  offset="0.9594" style="stop-color:#FDDB7E"/>
				<stop  offset="0.9811" style="stop-color:#FEE793"/>
				<stop  offset="1" style="stop-color:#FFEFA0"/>
			</linearGradient>
			<path class="st6" d="M99.2,322.3c-13.6-11.7-20.7-30.1-18.6-47.9c2.1-17.8,13.3-34,29.3-42.2c24.9-12.9,53.3-4.7,80.8,3.1
				c26.2,7.5,53.3,15.2,77.2,4.7c9.8-4.3,18.3-11.5,26.5-18.4c9.8-8.3,19.9-16.8,32.4-20.7c21.6-6.6,43.1,2.4,64,11
				c9.2,3.8,18.8,7.8,28.3,10.4c49.7,13.5,107.3-15.6,125.8-63.7l2.4,0.9c-18.9,49.3-77.9,79.1-128.8,65.3
				c-9.6-2.6-19.2-6.6-28.6-10.5c-21.4-8.9-41.6-17.3-62.3-10.9c-12,3.7-21.9,12.1-31.5,20.2c-8.3,7.1-17,14.4-27.1,18.8
				c-24.7,10.8-52.3,3-78.9-4.6c-28.3-8.1-55-15.7-78.9-3.3c-15.2,7.9-25.9,23.3-27.9,40.3c-2,17,4.8,34.5,17.7,45.7L99.2,322.3z"/>
		</g>
		<g>
			
				<linearGradient id="SVGID_8_" gradientUnits="userSpaceOnUse" x1="-1058.0665" y1="-3235.0642" x2="-636.0336" y2="-3235.0642" gradientTransform="matrix(-1 0 0 -1 -501.1843 -3035.5168)">
				<stop  offset="0" style="stop-color:#FFF1A5"/>
				<stop  offset="3.195160e-02" style="stop-color:#FDDB7E"/>
				<stop  offset="0.1008" style="stop-color:#E9BC65"/>
				<stop  offset="0.1913" style="stop-color:#D2994A"/>
				<stop  offset="0.2401" style="stop-color:#C98C3F"/>
				<stop  offset="0.3022" style="stop-color:#DCA956"/>
				<stop  offset="0.3931" style="stop-color:#FDDB7E"/>
				<stop  offset="0.467" style="stop-color:#FEE998"/>
				<stop  offset="0.5196" style="stop-color:#FFF1A5"/>
				<stop  offset="0.6883" style="stop-color:#FDDB7E"/>
				<stop  offset="0.7057" style="stop-color:#F3CB71"/>
				<stop  offset="0.7496" style="stop-color:#DCA956"/>
				<stop  offset="0.7857" style="stop-color:#CE9445"/>
				<stop  offset="0.8094" style="stop-color:#C98C3F"/>
				<stop  offset="0.8702" style="stop-color:#DCA956"/>
				<stop  offset="0.9594" style="stop-color:#FDDB7E"/>
				<stop  offset="0.9811" style="stop-color:#FEE793"/>
				<stop  offset="1" style="stop-color:#FFEFA0"/>
			</linearGradient>
			<path class="st7" d="M186,328.3c-18.6,0-37.2-6-51.2-18.2l1.7-1.9c28.3,24.8,76.6,23.2,103.2-3.4c9.2-9.2,16-20.7,22.6-31.9
				c7.7-13.1,15.7-26.6,27.5-36.5c19.1-15.9,47.3-19.9,70.1-10c7.3,3.2,13.9,7.6,20.3,11.9c4.3,2.9,8.8,5.9,13.3,8.4
				c7.8,4.4,23,10.9,36.4,5.4c10.3-4.2,18-14.6,23-30.9c1.1-3.5,2-7.2,3-10.7c2.5-9.6,5.1-19.6,10.5-28.2
				c9.7-15.6,27-24.6,42.3-32.5c17.3-9,32.2-17.6,40.7-32.2c5-8.7,6.3-19.9,3.3-29.4c-1.6-5-5-11.6-12.6-15.1l1.1-2.3
				c6.7,3.1,11.5,8.8,14,16.6c3.2,10.1,1.9,22.2-3.5,31.5c-8.8,15.2-24.8,24.3-41.7,33.1c-15,7.8-32,16.6-41.3,31.6
				c-5.2,8.3-7.7,18-10.2,27.5c-0.9,3.6-1.9,7.3-3,10.9c-5.2,17.1-13.5,28-24.5,32.5c-10.7,4.4-24.4,2.4-38.6-5.5
				c-4.7-2.6-9.1-5.6-13.5-8.5c-6.3-4.2-12.9-8.6-20-11.7c-21.9-9.6-49.1-5.8-67.5,9.6c-11.5,9.6-19.4,22.9-27,35.9
				c-6.7,11.3-13.5,23-23,32.4C227.1,321,206.5,328.3,186,328.3z"/>
		</g>
		<g>
			
				<linearGradient id="SVGID_9_" gradientUnits="userSpaceOnUse" x1="-950.8472" y1="-2889.812" x2="-443.6332" y2="-2889.812" gradientTransform="matrix(-1 0 0 -1 -501.1843 -3035.5168)">
				<stop  offset="0" style="stop-color:#FFF1A5"/>
				<stop  offset="3.195160e-02" style="stop-color:#FDDB7E"/>
				<stop  offset="0.1008" style="stop-color:#E9BC65"/>
				<stop  offset="0.1913" style="stop-color:#D2994A"/>
				<stop  offset="0.2401" style="stop-color:#C98C3F"/>
				<stop  offset="0.3022" style="stop-color:#DCA956"/>
				<stop  offset="0.3931" style="stop-color:#FDDB7E"/>
				<stop  offset="0.467" style="stop-color:#FEE998"/>
				<stop  offset="0.5196" style="stop-color:#FFF1A5"/>
				<stop  offset="0.6883" style="stop-color:#FDDB7E"/>
				<stop  offset="0.7057" style="stop-color:#F3CB71"/>
				<stop  offset="0.7496" style="stop-color:#DCA956"/>
				<stop  offset="0.7857" style="stop-color:#CE9445"/>
				<stop  offset="0.8094" style="stop-color:#C98C3F"/>
				<stop  offset="0.8702" style="stop-color:#DCA956"/>
				<stop  offset="0.9594" style="stop-color:#FDDB7E"/>
				<stop  offset="0.9811" style="stop-color:#FEE793"/>
				<stop  offset="1" style="stop-color:#FFEFA0"/>
			</linearGradient>
			<path class="st8" d="M-56.5-62.4c-5.2-21,10.3-41.6,28.2-49.3c16.2-7,36.3-6.9,59.6,0.1c9.5,2.9,18.8,6.6,27.8,10.2
				C68.4-97.7,78-93.9,87.6-91c22.8,6.8,42.2,6.6,57.8-0.4c10.7-4.8,19.7-13,28.4-21c8.8-8.1,18-16.4,29.1-21.4
				c23.8-10.7,52-3.9,73.9,3.2c2.8,0.9,5.7,1.9,8.5,2.8c20.7,6.9,42.2,14.1,63.7,11.5c23.4-2.9,46.7-18.1,64-41.7
				c15.7-21.4,25.1-46.7,34.3-71.1l2.4,0.9c-9.2,24.6-18.7,50-34.6,71.8c-17.7,24.2-41.6,39.8-65.7,42.7
				c-22.1,2.7-43.8-4.6-64.8-11.6c-2.8-1-5.7-1.9-8.5-2.8c-21.5-7-49-13.7-72-3.3c-10.7,4.8-19.7,13-28.4,20.9
				c-8.9,8.1-18,16.4-29.1,21.4c-16.2,7.3-36.2,7.4-59.6,0.5c-9.8-2.9-19.4-6.8-28.7-10.5c-9-3.6-18.3-7.3-27.6-10.1
				c-22.8-6.9-42.2-7-57.9-0.2c-17,7.3-31.6,26.6-26.7,46.3L-56.5-62.4z"/>
		</g>
		<g>
			
				<linearGradient id="SVGID_10_" gradientUnits="userSpaceOnUse" x1="-936.358" y1="-2900.7876" x2="-474.6897" y2="-2900.7876" gradientTransform="matrix(-1 0 0 -1 -501.1843 -3035.5168)">
				<stop  offset="0" style="stop-color:#FFF1A5"/>
				<stop  offset="3.195160e-02" style="stop-color:#FDDB7E"/>
				<stop  offset="0.1008" style="stop-color:#E9BC65"/>
				<stop  offset="0.1913" style="stop-color:#D2994A"/>
				<stop  offset="0.2401" style="stop-color:#C98C3F"/>
				<stop  offset="0.3022" style="stop-color:#DCA956"/>
				<stop  offset="0.3931" style="stop-color:#FDDB7E"/>
				<stop  offset="0.467" style="stop-color:#FEE998"/>
				<stop  offset="0.5196" style="stop-color:#FFF1A5"/>
				<stop  offset="0.6883" style="stop-color:#FDDB7E"/>
				<stop  offset="0.7057" style="stop-color:#F3CB71"/>
				<stop  offset="0.7496" style="stop-color:#DCA956"/>
				<stop  offset="0.7857" style="stop-color:#CE9445"/>
				<stop  offset="0.8094" style="stop-color:#C98C3F"/>
				<stop  offset="0.8702" style="stop-color:#DCA956"/>
				<stop  offset="0.9594" style="stop-color:#FDDB7E"/>
				<stop  offset="0.9811" style="stop-color:#FEE793"/>
				<stop  offset="1" style="stop-color:#FFEFA0"/>
			</linearGradient>
			<path class="st9" d="M10.9-31.1c-12.7,0-25.4-2.1-37.4-6.6l0.9-2.4C21-22.6,78.6-41.7,105.5-83.6c5.8-9.1,10.7-19.5,15.4-29.5
				c10.4-22.3,21.2-45.3,43.5-55.4c20.2-9.2,42.5-4.1,64,0.8c14.9,3.4,30.3,6.9,45.2,5.8c13-0.9,25.6-5.4,37.8-9.7
				c10.4-3.7,21.1-7.5,32.1-9.1c8.5-1.3,17.2-1.4,25.6-1.4c6,0,12.2-0.1,18.3-0.6c12.1-1,28.5-4.7,38.4-16.4
				c5-5.9,7.5-14.5,6.6-22.4c-0.8-6.3-3.7-11.5-8.1-14.8l1.5-2.1c5.1,3.7,8.3,9.6,9.2,16.5c1,8.6-1.7,17.9-7.2,24.4
				c-8.3,9.8-22.1,15.8-40.2,17.3c-6.2,0.5-12.4,0.6-18.5,0.6c-8.3,0.1-16.9,0.1-25.2,1.4c-10.8,1.7-21.4,5.4-31.7,9
				c-12.4,4.4-25.2,8.9-38.5,9.8c-15.2,1.1-30.8-2.5-45.9-5.9c-22.1-5-43-9.8-62.4-1c-21.5,9.7-31.5,31.3-42.2,54.2
				c-4.7,10.1-9.6,20.6-15.5,29.8C87-50.1,48.8-31.1,10.9-31.1z"/>
		</g>
	</g>
</g>
</svg>
