<?xml version="1.0" encoding="utf-8"?>
<!-- Generator: Adobe Illustrator 22.0.0, SVG Export Plug-In . SVG Version: 6.00 Build 0)  -->
<svg version="1.1" id="Layer_1" xmlns="http://www.w3.org/2000/svg" xmlns:xlink="http://www.w3.org/1999/xlink" x="0px" y="0px"
	 viewBox="0 0 640 512" style="enable-background:new 0 0 640 512;" xml:space="preserve">
<style type="text/css">
	.st0{fill:#002F5F;}
</style>
<path class="st0" d="M0,383.9h64c17.8,0,32-14.3,32-32V128.3H0V383.9z M48,320.1c8.8,0,16,7.1,16,16c0,8.7-7.3,16-16,16
	s-16-7.3-16-16C32,327.2,39.3,320.1,48,320.1z M348.8,64c-7.9,0-15.7,3-21.5,8.3l-98.4,90c-0.1,0.2-0.1,0.4-0.3,0.4
	c-16.6,15.6-16.3,40.5-2.1,56c12.8,13.1,39.4,17.6,56.1,2.8c0.2-0.1,0.3-0.1,0.4-0.3l79.9-73.1c6.5-5.9,16.8-5.5,22.6,1
	c6,6.5,5.5,16.6-1,22.6l-26.1,23.9L504,313.7c2.9,2.5,5.5,5,7.9,7.7V127.1c-41-41-96.5-63.9-154.4-63.9L348.8,64z M334.6,217.4
	l-30,27.5c-29.8,27.1-75.3,24.5-101.8-4.4c-26.8-29.3-24.7-74.8,4.5-101.6L289.1,64h-6.6c-57.8,0-113.4,23.1-154.3,63.9L128,351.8
	h18.3l90.5,81.8c27.5,22.4,67.8,18.1,90-9.2l18.1,15.2c15.9,12.1,39.4,10.5,52.4-5.4l31.4-38.6l5.4,4.5c13.8,11,33.9,9,45-4.7
	l9.5-11.8c11.1-13.8,9-33.8-4.7-44.9L334.6,217.4z M544,128.4V352c0,17.6,14.3,32,31.1,32H640V128.1L544,128.4z M592,352
	c-8.8,0-16-7.2-16-16c0-8.9,7.3-16,16-16s16,7.2,16,16.1C608,344.8,600.8,352,592,352z"/>
</svg>
