<?xml version="1.0" encoding="utf-8"?>
<!-- Generator: Adobe Illustrator 22.0.0, SVG Export Plug-In . SVG Version: 6.00 Build 0)  -->
<svg version="1.1" id="Layer_1" xmlns="http://www.w3.org/2000/svg" xmlns:xlink="http://www.w3.org/1999/xlink" x="0px" y="0px"
	 viewBox="0 0 512 512" style="enable-background:new 0 0 512 512;" xml:space="preserve">
<style type="text/css">
	.st0{fill:#5E5E44;}
</style>
<path class="st0" d="M466.5,83.7l-192-80C269.6,1.7,261.3,0,256,0c-5.3,0-13.5,1.7-18.4,3.7l-192,80C27.7,91.1,16,108.6,16,127.1
	c0,257.2,189.2,384,239.1,384c51.1,0,240-128.2,240-384C496,108.6,484.3,91.1,466.5,83.7z M256,446.5l0-381.1c0,0,0,0,0,0
	l175.9,73.2C427.8,319.7,319,417.1,256,446.5z"/>
</svg>
