<?xml version="1.0" encoding="utf-8"?>
<!-- Generator: Adobe Illustrator 22.0.0, SVG Export Plug-In . SVG Version: 6.00 Build 0)  -->
<svg version="1.1" id="Layer_1" xmlns="http://www.w3.org/2000/svg" xmlns:xlink="http://www.w3.org/1999/xlink" x="0px" y="0px"
	 viewBox="0 0 640 512" style="enable-background:new 0 0 640 512;" xml:space="preserve">
<style type="text/css">
	.st0{fill:#002F5F;}
</style>
<path class="st0" d="M274.7,304H173.3C77.6,304,0,381.6,0,477.3C0,496.5,15.5,512,34.7,512h378.6c19.2,0,34.7-15.5,34.7-34.7
	C448,381.6,370.4,304,274.7,304z M224,256c70.7,0,128-57.3,128-128S294.7,0,224,0S96,57.3,96,128S153.3,256,224,256z M632.3,134.4
	c-9.7-9-24.9-8.5-33.9,1.3l-87,93.8L472.9,191c-9.4-9.4-24.6-9.4-33.9,0s-9.4,24.6,0,33.9l56,56c4.5,4.5,10.6,7,17,7h0.4
	c6.5-0.1,12.7-2.9,17.2-7.7l104-112C642.6,158.6,642,143.4,632.3,134.4z"/>
</svg>
